<svg xmlns="http://www.w3.org/2000/svg" version="1.1" xmlns:xlink="http://www.w3.org/1999/xlink" xmlns:svgjs="http://svgjs.dev/svgjs" width="128" height="128" viewBox="0 0 128 128"><g transform="matrix(0.2647814910025707,0,0,0.2647814910025707,47.16729028680881,12.333870967741944)"><svg viewBox="0 0 51 155" data-background-color="#ffffff" preserveAspectRatio="xMidYMid meet" height="389" width="128" xmlns="http://www.w3.org/2000/svg" xmlns:xlink="http://www.w3.org/1999/xlink"><g id="tight-bounds" transform="matrix(1,0,0,1,-0.1705000000000041,0.25)"><svg viewBox="0 0 51.34062155912409 154.5" height="154.5" width="51.34062155912409"><g><svg></svg></g><g><svg viewBox="0 0 51.34062155912409 154.5" height="154.5" width="51.34062155912409"><g transform="matrix(1,0,0,1,0,47.746370999999996)"><svg viewBox="0 0 51.34062155912409 59.007258" height="59.007258" width="51.34062155912409"><g><svg viewBox="0 0 51.34062155912409 59.007258" height="59.007258" width="51.34062155912409"><g><svg viewBox="0 0 51.34062155912409 59.007258" height="59.007258" width="51.34062155912409"><g id="textblocktransform"><svg viewBox="0 0 51.34062155912409 59.007258" height="59.007258" width="51.34062155912409" id="textblock"><g><svg viewBox="0 0 51.34062155912409 59.007258" height="59.007258" width="51.34062155912409"><g transform="matrix(1,0,0,1,0,0)"><svg width="51.34062155912409" viewBox="-0.1 -33.45 29.1 33.45" height="59.007258" data-palette-color="#ba3b0a"><path d="M10.69-33.45L18.21-33.45Q20.68-33.45 22.68-32.71 24.68-31.98 26.09-30.71 27.49-29.44 28.25-27.75 29-26.05 29-24.15L29-24.15 29-9.3Q29-7.4 28.25-5.7 27.49-4 26.09-2.73 24.68-1.46 22.68-0.73 20.68 0 18.21 0L18.21 0 10.69 0Q8.23 0 6.23-0.73 4.22-1.46 2.82-2.73 1.42-4 0.66-5.7-0.1-7.4-0.1-9.3L-0.1-9.3-0.1-24.15Q-0.1-26.05 0.66-27.75 1.42-29.44 2.82-30.71 4.22-31.98 6.23-32.71 8.23-33.45 10.69-33.45L10.69-33.45ZM22.8-14.99L22.8-18.7 22.46-20.8 20.9-22.34 18.36-22.61 12.89-22.61 11.4-22.9Q11.28-23.32 11.23-23.65 11.18-23.97 11.06-24.34L11.06-24.34 11.06-26.9 11.4-28.34 13.01-28.66 19.21-28.66 21.51-28.2 22.09-30.86 19.26-31.25 12.84-31.25 10.4-30.91 8.81-29.35 8.5-27.29 8.5-23.95 8.81-21.9 10.4-20.36 12.84-20.04 18.36-20.04 19.85-19.8Q19.92-19.43 20.02-19.12 20.12-18.8 20.19-18.46L20.19-18.46 20.19-15.26Q20.14-14.94 20.03-14.58 19.92-14.21 19.85-13.89L19.85-13.89 18.26-13.65 12.21-13.65 9.81-14.04 9.2-11.4 12.06-11.06 18.41-11.06 20.9-11.35 22.46-12.89 22.8-14.99Z" opacity="1" transform="matrix(1,0,0,1,0,0)" fill="#ba3b0a" class="undefined-text-0" data-fill-palette-color="primary" id="text-0"></path></svg></g></svg></g></svg></g></svg></g><g></g></svg></g></svg></g><path d="M0 41.746L0 1 51.341 1 51.341 41.746 46.019 41.746 46.019 6.321 5.321 6.321 5.321 41.746 0 41.746M0 112.754L0 153.5 51.341 153.5 51.341 112.754 46.019 112.754 46.019 148.179 5.321 148.179 5.321 112.754 0 112.754" fill="#ba3b0a" stroke="transparent" data-fill-palette-color="primary"></path></svg></g><defs></defs></svg><rect width="51.34062155912409" height="154.5" fill="none" stroke="none" visibility="hidden"></rect></g></svg></g></svg>