<svg xmlns="http://www.w3.org/2000/svg" version="1.1" xmlns:xlink="http://www.w3.org/1999/xlink" xmlns:svgjs="http://svgjs.dev/svgjs" width="2000" height="1500" viewBox="0 0 2000 1500"><rect width="2000" height="1500" fill="#ffffff"></rect><g transform="matrix(0.43327556325823224,0,0,0.43327556325823224,566.949175129244,250.40485829959516)"><svg viewBox="0 0 214 247" data-background-color="#ffffff" preserveAspectRatio="xMidYMid meet" height="2308" width="2000" xmlns="http://www.w3.org/2000/svg" xmlns:xlink="http://www.w3.org/1999/xlink"><g id="tight-bounds" transform="matrix(1,0,0,1,-0.05549950678238247,-0.09999999999999432)"><svg viewBox="0 0 214.11093109782522 247.2" height="247.2" width="214.11093109782522"><g><svg></svg></g><g><svg viewBox="0 0 214.11093109782522 247.2" height="247.2" width="214.11093109782522"><g transform="matrix(1,0,0,1,0,47.215199999999996)"><svg viewBox="0 0 214.11093109782522 152.7696" height="152.7696" width="214.11093109782522"><g><svg viewBox="0 0 214.11093109782522 152.7696" height="152.7696" width="214.11093109782522"><g><svg viewBox="0 0 244.43136 174.4034314511245" height="152.7696" width="214.11093109782522"><g><svg viewBox="0 0 244.43136 174.4034314511245" height="174.4034314511245" width="244.43136"><g id="textblocktransform"><svg viewBox="0 0 244.43136 174.4034314511245" height="174.4034314511245" width="244.43136" id="textblock"><g><svg viewBox="0 0 244.43136 94.06487730337079" height="94.06487730337079" width="244.43136"><g transform="matrix(1,0,0,1,0,0)"><svg width="244.43136" viewBox="-0.10000000149011612 -33.45000076293945 86.90999603271484 33.45000076293945" height="94.06487730337079" data-palette-color="#ba3b0a"><path d="M10.69-33.45L18.21-33.45Q20.68-33.45 22.68-32.71 24.68-31.98 26.09-30.71 27.49-29.44 28.25-27.75 29-26.05 29-24.15L29-24.15 29-9.3Q29-7.4 28.25-5.7 27.49-4 26.09-2.73 24.68-1.46 22.68-0.73 20.68 0 18.21 0L18.21 0 10.69 0Q8.23 0 6.23-0.73 4.22-1.46 2.82-2.73 1.42-4 0.66-5.7-0.1-7.4-0.1-9.3L-0.1-9.3-0.1-24.15Q-0.1-26.05 0.66-27.75 1.42-29.44 2.82-30.71 4.22-31.98 6.23-32.71 8.23-33.45 10.69-33.45L10.69-33.45ZM22.8-14.99L22.8-18.7 22.46-20.8 20.9-22.34 18.36-22.61 12.89-22.61 11.4-22.9Q11.28-23.32 11.23-23.65 11.18-23.97 11.06-24.34L11.06-24.34 11.06-26.9 11.4-28.34 13.01-28.66 19.21-28.66 21.51-28.2 22.09-30.86 19.26-31.25 12.84-31.25 10.4-30.91 8.81-29.35 8.5-27.29 8.5-23.95 8.81-21.9 10.4-20.36 12.84-20.04 18.36-20.04 19.85-19.8Q19.92-19.43 20.02-19.12 20.12-18.8 20.19-18.46L20.19-18.46 20.19-15.26Q20.14-14.94 20.03-14.58 19.92-14.21 19.85-13.89L19.85-13.89 18.26-13.65 12.21-13.65 9.81-14.04 9.2-11.4 12.06-11.06 18.41-11.06 20.9-11.35 22.46-12.89 22.8-14.99ZM47.7-11.35L50.12-11.08 50.12-16.65 50.12-27.34 50.12-29.39 48.46-30.96 46.02-31.25 40.45-31.25 37.6-30.91 38.21-28.25 40.5-28.71 45.94-28.71 47.41-28.39 47.75-27.1 47.75-21.41 46.02-21.7 40.45-21.7 38.01-21.34 36.45-19.8 36.11-17.8 36.11-14.94 36.45-12.89 38.01-11.35 40.45-11.06 45.8-11.06 47.7-11.35ZM47.75-15.21L47.75-13.89 45.85-13.65 40.6-13.65 39.06-13.89 38.72-15.36 38.72-17.46 38.91-18.85 40.6-19.09 45.9-19.09 47.75-18.9 47.75-15.21ZM39.6-33.45L47.12-33.45Q49.58-33.45 51.58-32.71 53.59-31.98 54.99-30.71 56.39-29.44 57.15-27.75 57.91-26.05 57.91-24.15L57.91-24.15 57.91-9.3Q57.91-7.4 57.15-5.7 56.39-4 54.99-2.73 53.59-1.46 51.58-0.73 49.58 0 47.12 0L47.12 0 39.6 0Q37.13 0 35.13-0.73 33.13-1.46 31.72-2.73 30.32-4 29.56-5.7 28.81-7.4 28.81-9.3L28.81-9.3 28.81-24.15Q28.81-26.05 29.56-27.75 30.32-29.44 31.72-30.71 33.13-31.98 35.13-32.71 37.13-33.45 39.6-33.45L39.6-33.45ZM68.5-33.45L76.02-33.45Q78.49-33.45 80.49-32.71 82.49-31.98 83.89-30.71 85.3-29.44 86.05-27.75 86.81-26.05 86.81-24.15L86.81-24.15 86.81-9.3Q86.81-7.4 86.05-5.7 85.3-4 83.89-2.73 82.49-1.46 80.49-0.73 78.49 0 76.02 0L76.02 0 68.5 0Q66.04 0 64.03-0.73 62.03-1.46 60.63-2.73 59.22-4 58.47-5.7 57.71-7.4 57.71-9.3L57.71-9.3 57.71-24.15Q57.71-26.05 58.47-27.75 59.22-29.44 60.63-30.71 62.03-31.98 64.03-32.71 66.04-33.45 68.5-33.45L68.5-33.45ZM73.02-29.17L72.21-30.86 70.87-31.25 67.67-31.25 65.62-30.91 64.06-29.35 64.06-11.06 66.67-11.06 66.67-28.44Q67.01-28.52 67.28-28.54 67.55-28.56 67.87-28.66L67.87-28.66 70.65-28.66Q70.92-28.56 71.17-28.54 71.43-28.52 71.7-28.44L71.7-28.44 71.7-18.09 74.31-18.09 74.31-28.44 75.36-28.66 78.17-28.66Q78.46-28.56 78.75-28.54 79.05-28.52 79.37-28.44L79.37-28.44 79.37-11.06 81.95-11.06 81.95-29.35 80.41-30.91 78.36-31.25 75.17-31.25 73.85-30.86 73.02-29.17Z" opacity="1" transform="matrix(1,0,0,1,0,0)" fill="#ba3b0a" class="undefined-text-0" data-fill-palette-color="primary" id="text-0"></path></svg></g></svg></g><g transform="matrix(1,0,0,1,0,116.27133727764135)"><svg viewBox="0 0 244.43136 58.13209417348315" height="58.13209417348315" width="244.43136"><g transform="matrix(1,0,0,1,0,0)"><svg width="244.43136" viewBox="2.9000000953674316 -33.95000076293945 20.700000762939453 34.29999923706055" height="58.13209417348315" data-palette-color="#e8772e"><path d="M23.6-9.2L23.6-9.2Q23.6-4.75 20.45-2.2 17.3 0.35 12.3 0.35L12.3 0.35Q6.75 0.35 3.1-1.8L3.1-1.8 3.1-7.15Q7.05-4.2 12.25-4.2L12.25-4.2Q15-4.2 16.6-5.48 18.2-6.75 18.2-9L18.2-9Q18.2-10.35 17.25-11.48 16.3-12.6 15.2-13.18 14.1-13.75 11.9-14.75L11.9-14.75Q10.6-15.35 10.08-15.6 9.55-15.85 8.35-16.5 7.15-17.15 6.58-17.6 6-18.05 5.15-18.85 4.3-19.65 3.93-20.45 3.55-21.25 3.23-22.33 2.9-23.4 2.9-24.65L2.9-24.65Q2.9-28.95 6.03-31.45 9.15-33.95 14.1-33.95L14.1-33.95Q18.65-33.95 21.85-32.35L21.85-32.35 21.85-27.25Q18.5-29.35 14.25-29.35L14.25-29.35Q11.5-29.35 9.93-28.13 8.35-26.9 8.35-24.9 8.35-22.9 9.9-21.7 11.45-20.5 14.65-19.1L14.65-19.1Q16.75-18.2 17.93-17.55 19.1-16.9 20.63-15.73 22.15-14.55 22.88-12.93 23.6-11.3 23.6-9.2Z" opacity="1" transform="matrix(1,0,0,1,0,0)" fill="#e8772e" class="undefined-text-1" data-fill-palette-color="secondary" id="text-1"></path></svg></g></svg></g></svg></g></svg></g><g></g></svg></g></svg></g></svg></g><path d="M0 41.215L0 1 214.111 1 214.111 41.215 206.68 41.215 206.68 8.431 7.431 8.431 7.431 41.215 0 41.215M0 205.985L0 246.2 214.111 246.2 214.111 205.985 206.68 205.985 206.68 238.769 7.431 238.769 7.431 205.985 0 205.985" fill="#ba3b0a" stroke="transparent" data-fill-palette-color="primary"></path></svg></g><defs></defs></svg><rect width="214.11093109782522" height="247.2" fill="none" stroke="none" visibility="hidden"></rect></g></svg></g></svg>